<mxfile host="Electron" modified="2023-12-02T14:44:08.001Z" agent="Mozilla/5.0 (Windows NT 10.0; Win64; x64) AppleWebKit/537.36 (KHTML, like Gecko) draw.io/22.1.2 Chrome/114.0.5735.289 Electron/25.9.4 Safari/537.36" etag="e4JN30la-PiRtcrLFFKb" version="22.1.2" type="device">
  <diagram name="Страница — 1" id="jHrGILQ1xc1ot33H6l2s">
    <mxGraphModel dx="1054" dy="1414" grid="1" gridSize="10" guides="1" tooltips="1" connect="1" arrows="1" fold="1" page="1" pageScale="1" pageWidth="827" pageHeight="1169" background="#ffffff" math="0" shadow="0">
      <root>
        <mxCell id="0" />
        <mxCell id="1" parent="0" />
        <mxCell id="ZSE54zDe3pXDpEOQKUg0-1" value="ConfigurationSpace" style="swimlane;fontStyle=1;align=center;verticalAlign=top;childLayout=stackLayout;horizontal=1;startSize=26;horizontalStack=0;resizeParent=1;resizeParentMax=0;resizeLast=0;collapsible=1;marginBottom=0;whiteSpace=wrap;html=1;swimlaneFillColor=none;rounded=0;" vertex="1" parent="1">
          <mxGeometry x="17" y="330" width="283" height="424" as="geometry" />
        </mxCell>
        <mxCell id="ZSE54zDe3pXDpEOQKUg0-6" value="- obst: list(Obstacle)" style="text;align=left;verticalAlign=top;spacingLeft=4;spacingRight=4;overflow=hidden;rotatable=0;points=[[0,0.5],[1,0.5]];portConstraint=eastwest;whiteSpace=wrap;html=1;rounded=0;" vertex="1" parent="ZSE54zDe3pXDpEOQKUg0-1">
          <mxGeometry y="26" width="283" height="26" as="geometry" />
        </mxCell>
        <mxCell id="ZSE54zDe3pXDpEOQKUg0-37" value="- configuration_points: list(list(Point))" style="text;align=left;verticalAlign=top;spacingLeft=4;spacingRight=4;overflow=hidden;rotatable=0;points=[[0,0.5],[1,0.5]];portConstraint=eastwest;whiteSpace=wrap;html=1;rounded=0;" vertex="1" parent="ZSE54zDe3pXDpEOQKUg0-1">
          <mxGeometry y="52" width="283" height="26" as="geometry" />
        </mxCell>
        <mxCell id="ZSE54zDe3pXDpEOQKUg0-40" value="- lines: list(Line)" style="text;align=left;verticalAlign=top;spacingLeft=4;spacingRight=4;overflow=hidden;rotatable=0;points=[[0,0.5],[1,0.5]];portConstraint=eastwest;whiteSpace=wrap;html=1;rounded=0;" vertex="1" parent="ZSE54zDe3pXDpEOQKUg0-1">
          <mxGeometry y="78" width="283" height="26" as="geometry" />
        </mxCell>
        <mxCell id="ZSE54zDe3pXDpEOQKUg0-41" value="- trapezoids: list(Trapezoid)" style="text;align=left;verticalAlign=top;spacingLeft=4;spacingRight=4;overflow=hidden;rotatable=0;points=[[0,0.5],[1,0.5]];portConstraint=eastwest;whiteSpace=wrap;html=1;rounded=0;" vertex="1" parent="ZSE54zDe3pXDpEOQKUg0-1">
          <mxGeometry y="104" width="283" height="26" as="geometry" />
        </mxCell>
        <mxCell id="ZSE54zDe3pXDpEOQKUg0-3" value="" style="line;strokeWidth=1;align=left;verticalAlign=middle;spacingTop=-1;spacingLeft=3;spacingRight=3;rotatable=0;labelPosition=right;points=[];portConstraint=eastwest;rounded=0;" vertex="1" parent="ZSE54zDe3pXDpEOQKUg0-1">
          <mxGeometry y="130" width="283" height="8" as="geometry" />
        </mxCell>
        <mxCell id="ZSE54zDe3pXDpEOQKUg0-107" value="+ __init__(): None" style="text;align=left;verticalAlign=top;spacingLeft=4;spacingRight=4;overflow=hidden;rotatable=0;points=[[0,0.5],[1,0.5]];portConstraint=eastwest;whiteSpace=wrap;html=1;rounded=0;" vertex="1" parent="ZSE54zDe3pXDpEOQKUg0-1">
          <mxGeometry y="138" width="283" height="26" as="geometry" />
        </mxCell>
        <mxCell id="ZSE54zDe3pXDpEOQKUg0-4" value="+ parse_JSON(path: str): None" style="text;align=left;verticalAlign=top;spacingLeft=4;spacingRight=4;overflow=hidden;rotatable=0;points=[[0,0.5],[1,0.5]];portConstraint=eastwest;whiteSpace=wrap;html=1;rounded=0;" vertex="1" parent="ZSE54zDe3pXDpEOQKUg0-1">
          <mxGeometry y="164" width="283" height="26" as="geometry" />
        </mxCell>
        <mxCell id="ZSE54zDe3pXDpEOQKUg0-36" value="+ prepare_points(): None" style="text;align=left;verticalAlign=top;spacingLeft=4;spacingRight=4;overflow=hidden;rotatable=0;points=[[0,0.5],[1,0.5]];portConstraint=eastwest;whiteSpace=wrap;html=1;rounded=0;" vertex="1" parent="ZSE54zDe3pXDpEOQKUg0-1">
          <mxGeometry y="190" width="283" height="26" as="geometry" />
        </mxCell>
        <mxCell id="ZSE54zDe3pXDpEOQKUg0-38" value="+ sort_points(): None" style="text;align=left;verticalAlign=top;spacingLeft=4;spacingRight=4;overflow=hidden;rotatable=0;points=[[0,0.5],[1,0.5]];portConstraint=eastwest;whiteSpace=wrap;html=1;rounded=0;" vertex="1" parent="ZSE54zDe3pXDpEOQKUg0-1">
          <mxGeometry y="216" width="283" height="26" as="geometry" />
        </mxCell>
        <mxCell id="ZSE54zDe3pXDpEOQKUg0-39" value="+ divide_space_into_trapezoids(): None" style="text;align=left;verticalAlign=top;spacingLeft=4;spacingRight=4;overflow=hidden;rotatable=0;points=[[0,0.5],[1,0.5]];portConstraint=eastwest;whiteSpace=wrap;html=1;rounded=0;" vertex="1" parent="ZSE54zDe3pXDpEOQKUg0-1">
          <mxGeometry y="242" width="283" height="26" as="geometry" />
        </mxCell>
        <mxCell id="ZSE54zDe3pXDpEOQKUg0-71" value="+ create_line_with_points(list(Point)): list(Line)" style="text;align=left;verticalAlign=top;spacingLeft=4;spacingRight=4;overflow=hidden;rotatable=0;points=[[0,0.5],[1,0.5]];portConstraint=eastwest;whiteSpace=wrap;html=1;rounded=0;" vertex="1" parent="ZSE54zDe3pXDpEOQKUg0-1">
          <mxGeometry y="268" width="283" height="26" as="geometry" />
        </mxCell>
        <mxCell id="ZSE54zDe3pXDpEOQKUg0-72" value="+ create_trapezoid_with_lines(Line): Trapezoid" style="text;align=left;verticalAlign=top;spacingLeft=4;spacingRight=4;overflow=hidden;rotatable=0;points=[[0,0.5],[1,0.5]];portConstraint=eastwest;whiteSpace=wrap;html=1;rounded=0;" vertex="1" parent="ZSE54zDe3pXDpEOQKUg0-1">
          <mxGeometry y="294" width="283" height="26" as="geometry" />
        </mxCell>
        <mxCell id="ZSE54zDe3pXDpEOQKUg0-73" value="+ add_line_to_list(Line): None" style="text;align=left;verticalAlign=top;spacingLeft=4;spacingRight=4;overflow=hidden;rotatable=0;points=[[0,0.5],[1,0.5]];portConstraint=eastwest;whiteSpace=wrap;html=1;rounded=0;" vertex="1" parent="ZSE54zDe3pXDpEOQKUg0-1">
          <mxGeometry y="320" width="283" height="26" as="geometry" />
        </mxCell>
        <mxCell id="ZSE54zDe3pXDpEOQKUg0-74" value="+ add_trapezoid_to_list(Trapezoid): None" style="text;align=left;verticalAlign=top;spacingLeft=4;spacingRight=4;overflow=hidden;rotatable=0;points=[[0,0.5],[1,0.5]];portConstraint=eastwest;whiteSpace=wrap;html=1;rounded=0;" vertex="1" parent="ZSE54zDe3pXDpEOQKUg0-1">
          <mxGeometry y="346" width="283" height="26" as="geometry" />
        </mxCell>
        <mxCell id="ZSE54zDe3pXDpEOQKUg0-83" value="+ get_trapezoids(): list(Trapezoid)" style="text;align=left;verticalAlign=top;spacingLeft=4;spacingRight=4;overflow=hidden;rotatable=0;points=[[0,0.5],[1,0.5]];portConstraint=eastwest;whiteSpace=wrap;html=1;rounded=0;" vertex="1" parent="ZSE54zDe3pXDpEOQKUg0-1">
          <mxGeometry y="372" width="283" height="26" as="geometry" />
        </mxCell>
        <mxCell id="ZSE54zDe3pXDpEOQKUg0-84" value="+ get_lines(): list(Line)" style="text;align=left;verticalAlign=top;spacingLeft=4;spacingRight=4;overflow=hidden;rotatable=0;points=[[0,0.5],[1,0.5]];portConstraint=eastwest;whiteSpace=wrap;html=1;rounded=0;" vertex="1" parent="ZSE54zDe3pXDpEOQKUg0-1">
          <mxGeometry y="398" width="283" height="26" as="geometry" />
        </mxCell>
        <mxCell id="ZSE54zDe3pXDpEOQKUg0-7" value="Obstacle" style="swimlane;fontStyle=1;align=center;verticalAlign=top;childLayout=stackLayout;horizontal=1;startSize=26;horizontalStack=0;resizeParent=1;resizeParentMax=0;resizeLast=0;collapsible=1;marginBottom=0;whiteSpace=wrap;html=1;rounded=0;" vertex="1" parent="1">
          <mxGeometry x="570" y="80" width="249" height="112" as="geometry" />
        </mxCell>
        <mxCell id="ZSE54zDe3pXDpEOQKUg0-16" value="+ points: list(Point)" style="text;align=left;verticalAlign=top;spacingLeft=4;spacingRight=4;overflow=hidden;rotatable=0;points=[[0,0.5],[1,0.5]];portConstraint=eastwest;whiteSpace=wrap;html=1;rounded=0;" vertex="1" parent="ZSE54zDe3pXDpEOQKUg0-7">
          <mxGeometry y="26" width="249" height="26" as="geometry" />
        </mxCell>
        <mxCell id="ZSE54zDe3pXDpEOQKUg0-9" value="" style="line;strokeWidth=1;align=left;verticalAlign=middle;spacingTop=-1;spacingLeft=3;spacingRight=3;rotatable=0;labelPosition=right;points=[];portConstraint=eastwest;rounded=0;" vertex="1" parent="ZSE54zDe3pXDpEOQKUg0-7">
          <mxGeometry y="52" width="249" height="8" as="geometry" />
        </mxCell>
        <mxCell id="ZSE54zDe3pXDpEOQKUg0-116" value="+ get_points(): list(Point)" style="text;align=left;verticalAlign=top;spacingLeft=4;spacingRight=4;overflow=hidden;rotatable=0;points=[[0,0.5],[1,0.5]];portConstraint=eastwest;whiteSpace=wrap;html=1;rounded=0;" vertex="1" parent="ZSE54zDe3pXDpEOQKUg0-7">
          <mxGeometry y="60" width="249" height="26" as="geometry" />
        </mxCell>
        <mxCell id="ZSE54zDe3pXDpEOQKUg0-10" value="+ {abstract} point_inside_obst(p: Point): bool" style="text;align=left;verticalAlign=top;spacingLeft=4;spacingRight=4;overflow=hidden;rotatable=0;points=[[0,0.5],[1,0.5]];portConstraint=eastwest;whiteSpace=wrap;html=1;rounded=0;" vertex="1" parent="ZSE54zDe3pXDpEOQKUg0-7">
          <mxGeometry y="86" width="249" height="26" as="geometry" />
        </mxCell>
        <mxCell id="ZSE54zDe3pXDpEOQKUg0-17" value="Polyline" style="swimlane;fontStyle=1;align=center;verticalAlign=top;childLayout=stackLayout;horizontal=1;startSize=26;horizontalStack=0;resizeParent=1;resizeParentMax=0;resizeLast=0;collapsible=1;marginBottom=0;whiteSpace=wrap;html=1;rounded=0;" vertex="1" parent="1">
          <mxGeometry x="370" y="349" width="290" height="138" as="geometry" />
        </mxCell>
        <mxCell id="ZSE54zDe3pXDpEOQKUg0-18" value="- size: float" style="text;align=left;verticalAlign=top;spacingLeft=4;spacingRight=4;overflow=hidden;rotatable=0;points=[[0,0.5],[1,0.5]];portConstraint=eastwest;whiteSpace=wrap;html=1;rounded=0;" vertex="1" parent="ZSE54zDe3pXDpEOQKUg0-17">
          <mxGeometry y="26" width="290" height="26" as="geometry" />
        </mxCell>
        <mxCell id="ZSE54zDe3pXDpEOQKUg0-19" value="" style="line;strokeWidth=1;align=left;verticalAlign=middle;spacingTop=-1;spacingLeft=3;spacingRight=3;rotatable=0;labelPosition=right;points=[];portConstraint=eastwest;rounded=0;" vertex="1" parent="ZSE54zDe3pXDpEOQKUg0-17">
          <mxGeometry y="52" width="290" height="8" as="geometry" />
        </mxCell>
        <mxCell id="ZSE54zDe3pXDpEOQKUg0-108" value="+ __init__(p1: Point, p2: Point, size: float): None" style="text;align=left;verticalAlign=top;spacingLeft=4;spacingRight=4;overflow=hidden;rotatable=0;points=[[0,0.5],[1,0.5]];portConstraint=eastwest;whiteSpace=wrap;html=1;rounded=0;" vertex="1" parent="ZSE54zDe3pXDpEOQKUg0-17">
          <mxGeometry y="60" width="290" height="26" as="geometry" />
        </mxCell>
        <mxCell id="ZSE54zDe3pXDpEOQKUg0-20" value="+ point_inside_obst(p: Point): bool" style="text;align=left;verticalAlign=top;spacingLeft=4;spacingRight=4;overflow=hidden;rotatable=0;points=[[0,0.5],[1,0.5]];portConstraint=eastwest;whiteSpace=wrap;html=1;rounded=0;" vertex="1" parent="ZSE54zDe3pXDpEOQKUg0-17">
          <mxGeometry y="86" width="290" height="26" as="geometry" />
        </mxCell>
        <mxCell id="ZSE54zDe3pXDpEOQKUg0-115" value="+ get_size(): float" style="text;align=left;verticalAlign=top;spacingLeft=4;spacingRight=4;overflow=hidden;rotatable=0;points=[[0,0.5],[1,0.5]];portConstraint=eastwest;whiteSpace=wrap;html=1;rounded=0;" vertex="1" parent="ZSE54zDe3pXDpEOQKUg0-17">
          <mxGeometry y="112" width="290" height="26" as="geometry" />
        </mxCell>
        <mxCell id="ZSE54zDe3pXDpEOQKUg0-22" value="Polygon" style="swimlane;fontStyle=1;align=center;verticalAlign=top;childLayout=stackLayout;horizontal=1;startSize=26;horizontalStack=0;resizeParent=1;resizeParentMax=0;resizeLast=0;collapsible=1;marginBottom=0;whiteSpace=wrap;html=1;rounded=0;" vertex="1" parent="1">
          <mxGeometry x="690" y="349" width="210" height="86" as="geometry" />
        </mxCell>
        <mxCell id="ZSE54zDe3pXDpEOQKUg0-24" value="" style="line;strokeWidth=1;align=left;verticalAlign=middle;spacingTop=-1;spacingLeft=3;spacingRight=3;rotatable=0;labelPosition=right;points=[];portConstraint=eastwest;rounded=0;" vertex="1" parent="ZSE54zDe3pXDpEOQKUg0-22">
          <mxGeometry y="26" width="210" height="8" as="geometry" />
        </mxCell>
        <mxCell id="ZSE54zDe3pXDpEOQKUg0-109" value="+ __init__(list(Point)): None" style="text;align=left;verticalAlign=top;spacingLeft=4;spacingRight=4;overflow=hidden;rotatable=0;points=[[0,0.5],[1,0.5]];portConstraint=eastwest;whiteSpace=wrap;html=1;rounded=0;" vertex="1" parent="ZSE54zDe3pXDpEOQKUg0-22">
          <mxGeometry y="34" width="210" height="26" as="geometry" />
        </mxCell>
        <mxCell id="ZSE54zDe3pXDpEOQKUg0-25" value="+ point_inside_obst(p: Point): bool" style="text;align=left;verticalAlign=top;spacingLeft=4;spacingRight=4;overflow=hidden;rotatable=0;points=[[0,0.5],[1,0.5]];portConstraint=eastwest;whiteSpace=wrap;html=1;rounded=0;" vertex="1" parent="ZSE54zDe3pXDpEOQKUg0-22">
          <mxGeometry y="60" width="210" height="26" as="geometry" />
        </mxCell>
        <mxCell id="ZSE54zDe3pXDpEOQKUg0-30" value="PolyPoint" style="swimlane;fontStyle=1;align=center;verticalAlign=top;childLayout=stackLayout;horizontal=1;startSize=26;horizontalStack=0;resizeParent=1;resizeParentMax=0;resizeLast=0;collapsible=1;marginBottom=0;whiteSpace=wrap;html=1;rounded=0;" vertex="1" parent="1">
          <mxGeometry x="940" y="349" width="290" height="164" as="geometry" />
        </mxCell>
        <mxCell id="ZSE54zDe3pXDpEOQKUg0-33" value="- size: float" style="text;align=left;verticalAlign=top;spacingLeft=4;spacingRight=4;overflow=hidden;rotatable=0;points=[[0,0.5],[1,0.5]];portConstraint=eastwest;whiteSpace=wrap;html=1;rounded=0;" vertex="1" parent="ZSE54zDe3pXDpEOQKUg0-30">
          <mxGeometry y="26" width="290" height="26" as="geometry" />
        </mxCell>
        <mxCell id="ZSE54zDe3pXDpEOQKUg0-34" value="" style="line;strokeWidth=1;align=left;verticalAlign=middle;spacingTop=-1;spacingLeft=3;spacingRight=3;rotatable=0;labelPosition=right;points=[];portConstraint=eastwest;rounded=0;" vertex="1" parent="ZSE54zDe3pXDpEOQKUg0-30">
          <mxGeometry y="52" width="290" height="8" as="geometry" />
        </mxCell>
        <mxCell id="ZSE54zDe3pXDpEOQKUg0-110" value="+ __init__(p: Point, size_: float): None" style="text;align=left;verticalAlign=top;spacingLeft=4;spacingRight=4;overflow=hidden;rotatable=0;points=[[0,0.5],[1,0.5]];portConstraint=eastwest;whiteSpace=wrap;html=1;rounded=0;" vertex="1" parent="ZSE54zDe3pXDpEOQKUg0-30">
          <mxGeometry y="60" width="290" height="26" as="geometry" />
        </mxCell>
        <mxCell id="ZSE54zDe3pXDpEOQKUg0-35" value="+ point_inside_obst(p: Point): bool" style="text;align=left;verticalAlign=top;spacingLeft=4;spacingRight=4;overflow=hidden;rotatable=0;points=[[0,0.5],[1,0.5]];portConstraint=eastwest;whiteSpace=wrap;html=1;rounded=0;" vertex="1" parent="ZSE54zDe3pXDpEOQKUg0-30">
          <mxGeometry y="86" width="290" height="26" as="geometry" />
        </mxCell>
        <mxCell id="ZSE54zDe3pXDpEOQKUg0-113" value="+ get_size(): float" style="text;align=left;verticalAlign=top;spacingLeft=4;spacingRight=4;overflow=hidden;rotatable=0;points=[[0,0.5],[1,0.5]];portConstraint=eastwest;whiteSpace=wrap;html=1;rounded=0;" vertex="1" parent="ZSE54zDe3pXDpEOQKUg0-30">
          <mxGeometry y="112" width="290" height="26" as="geometry" />
        </mxCell>
        <mxCell id="ZSE54zDe3pXDpEOQKUg0-112" value="- set_size(size_: float): None" style="text;align=left;verticalAlign=top;spacingLeft=4;spacingRight=4;overflow=hidden;rotatable=0;points=[[0,0.5],[1,0.5]];portConstraint=eastwest;whiteSpace=wrap;html=1;rounded=0;" vertex="1" parent="ZSE54zDe3pXDpEOQKUg0-30">
          <mxGeometry y="138" width="290" height="26" as="geometry" />
        </mxCell>
        <mxCell id="ZSE54zDe3pXDpEOQKUg0-42" value="" style="endArrow=block;dashed=1;endFill=0;endSize=12;html=1;rounded=0;exitX=0.5;exitY=0;exitDx=0;exitDy=0;entryX=0.5;entryY=1;entryDx=0;entryDy=0;" edge="1" parent="1" source="ZSE54zDe3pXDpEOQKUg0-17" target="ZSE54zDe3pXDpEOQKUg0-7">
          <mxGeometry width="160" relative="1" as="geometry">
            <mxPoint x="570" y="279" as="sourcePoint" />
            <mxPoint x="680" y="249" as="targetPoint" />
            <Array as="points">
              <mxPoint x="515" y="259" />
              <mxPoint x="695" y="259" />
            </Array>
          </mxGeometry>
        </mxCell>
        <mxCell id="ZSE54zDe3pXDpEOQKUg0-43" value="" style="endArrow=block;dashed=1;endFill=0;endSize=12;html=1;rounded=0;exitX=0.5;exitY=0;exitDx=0;exitDy=0;entryX=0.5;entryY=1;entryDx=0;entryDy=0;" edge="1" parent="1" source="ZSE54zDe3pXDpEOQKUg0-22" target="ZSE54zDe3pXDpEOQKUg0-7">
          <mxGeometry width="160" relative="1" as="geometry">
            <mxPoint x="760" y="459" as="sourcePoint" />
            <mxPoint x="920" y="459" as="targetPoint" />
            <Array as="points">
              <mxPoint x="795" y="259" />
              <mxPoint x="695" y="259" />
            </Array>
          </mxGeometry>
        </mxCell>
        <mxCell id="ZSE54zDe3pXDpEOQKUg0-44" value="" style="endArrow=block;dashed=1;endFill=0;endSize=12;html=1;rounded=0;exitX=0.5;exitY=0;exitDx=0;exitDy=0;entryX=0.5;entryY=1;entryDx=0;entryDy=0;" edge="1" parent="1" source="ZSE54zDe3pXDpEOQKUg0-30" target="ZSE54zDe3pXDpEOQKUg0-7">
          <mxGeometry width="160" relative="1" as="geometry">
            <mxPoint x="870" y="509" as="sourcePoint" />
            <mxPoint x="719" y="210" as="targetPoint" />
            <Array as="points">
              <mxPoint x="1085" y="259" />
              <mxPoint x="694" y="259" />
            </Array>
          </mxGeometry>
        </mxCell>
        <mxCell id="ZSE54zDe3pXDpEOQKUg0-45" value="Trapezoid" style="swimlane;fontStyle=1;align=center;verticalAlign=top;childLayout=stackLayout;horizontal=1;startSize=26;horizontalStack=0;resizeParent=1;resizeParentMax=0;resizeLast=0;collapsible=1;marginBottom=0;whiteSpace=wrap;html=1;rounded=0;" vertex="1" parent="1">
          <mxGeometry x="490" y="1140" width="220" height="242" as="geometry" />
        </mxCell>
        <mxCell id="ZSE54zDe3pXDpEOQKUg0-46" value="- left: list(Line)" style="text;align=left;verticalAlign=top;spacingLeft=4;spacingRight=4;overflow=hidden;rotatable=0;points=[[0,0.5],[1,0.5]];portConstraint=eastwest;whiteSpace=wrap;html=1;rounded=0;" vertex="1" parent="ZSE54zDe3pXDpEOQKUg0-45">
          <mxGeometry y="26" width="220" height="26" as="geometry" />
        </mxCell>
        <mxCell id="ZSE54zDe3pXDpEOQKUg0-61" value="- right: list(Line)" style="text;align=left;verticalAlign=top;spacingLeft=4;spacingRight=4;overflow=hidden;rotatable=0;points=[[0,0.5],[1,0.5]];portConstraint=eastwest;whiteSpace=wrap;html=1;rounded=0;" vertex="1" parent="ZSE54zDe3pXDpEOQKUg0-45">
          <mxGeometry y="52" width="220" height="26" as="geometry" />
        </mxCell>
        <mxCell id="ZSE54zDe3pXDpEOQKUg0-47" value="" style="line;strokeWidth=1;align=left;verticalAlign=middle;spacingTop=-1;spacingLeft=3;spacingRight=3;rotatable=0;labelPosition=right;points=[];portConstraint=eastwest;rounded=0;" vertex="1" parent="ZSE54zDe3pXDpEOQKUg0-45">
          <mxGeometry y="78" width="220" height="8" as="geometry" />
        </mxCell>
        <mxCell id="ZSE54zDe3pXDpEOQKUg0-98" value="+ __init__(list(Line), list(Line)): None" style="text;align=left;verticalAlign=top;spacingLeft=4;spacingRight=4;overflow=hidden;rotatable=0;points=[[0,0.5],[1,0.5]];portConstraint=eastwest;whiteSpace=wrap;html=1;rounded=0;" vertex="1" parent="ZSE54zDe3pXDpEOQKUg0-45">
          <mxGeometry y="86" width="220" height="26" as="geometry" />
        </mxCell>
        <mxCell id="ZSE54zDe3pXDpEOQKUg0-99" value="+ set_left(list(Line)): None" style="text;align=left;verticalAlign=top;spacingLeft=4;spacingRight=4;overflow=hidden;rotatable=0;points=[[0,0.5],[1,0.5]];portConstraint=eastwest;whiteSpace=wrap;html=1;rounded=0;" vertex="1" parent="ZSE54zDe3pXDpEOQKUg0-45">
          <mxGeometry y="112" width="220" height="26" as="geometry" />
        </mxCell>
        <mxCell id="ZSE54zDe3pXDpEOQKUg0-100" value="+ set_right(list(Line)): None" style="text;align=left;verticalAlign=top;spacingLeft=4;spacingRight=4;overflow=hidden;rotatable=0;points=[[0,0.5],[1,0.5]];portConstraint=eastwest;whiteSpace=wrap;html=1;rounded=0;" vertex="1" parent="ZSE54zDe3pXDpEOQKUg0-45">
          <mxGeometry y="138" width="220" height="26" as="geometry" />
        </mxCell>
        <mxCell id="ZSE54zDe3pXDpEOQKUg0-101" value="+ get_left(): list(Line)" style="text;align=left;verticalAlign=top;spacingLeft=4;spacingRight=4;overflow=hidden;rotatable=0;points=[[0,0.5],[1,0.5]];portConstraint=eastwest;whiteSpace=wrap;html=1;rounded=0;" vertex="1" parent="ZSE54zDe3pXDpEOQKUg0-45">
          <mxGeometry y="164" width="220" height="26" as="geometry" />
        </mxCell>
        <mxCell id="ZSE54zDe3pXDpEOQKUg0-102" value="+ get_right(): list(Line)" style="text;align=left;verticalAlign=top;spacingLeft=4;spacingRight=4;overflow=hidden;rotatable=0;points=[[0,0.5],[1,0.5]];portConstraint=eastwest;whiteSpace=wrap;html=1;rounded=0;" vertex="1" parent="ZSE54zDe3pXDpEOQKUg0-45">
          <mxGeometry y="190" width="220" height="26" as="geometry" />
        </mxCell>
        <mxCell id="ZSE54zDe3pXDpEOQKUg0-48" value="- compute_center(): None" style="text;align=left;verticalAlign=top;spacingLeft=4;spacingRight=4;overflow=hidden;rotatable=0;points=[[0,0.5],[1,0.5]];portConstraint=eastwest;whiteSpace=wrap;html=1;rounded=0;" vertex="1" parent="ZSE54zDe3pXDpEOQKUg0-45">
          <mxGeometry y="216" width="220" height="26" as="geometry" />
        </mxCell>
        <mxCell id="ZSE54zDe3pXDpEOQKUg0-49" value="Line" style="swimlane;fontStyle=1;align=center;verticalAlign=top;childLayout=stackLayout;horizontal=1;startSize=26;horizontalStack=0;resizeParent=1;resizeParentMax=0;resizeLast=0;collapsible=1;marginBottom=0;whiteSpace=wrap;html=1;rounded=0;" vertex="1" parent="1">
          <mxGeometry x="760" y="1140" width="233" height="268" as="geometry" />
        </mxCell>
        <mxCell id="ZSE54zDe3pXDpEOQKUg0-50" value="- from: Trapezoid" style="text;align=left;verticalAlign=top;spacingLeft=4;spacingRight=4;overflow=hidden;rotatable=0;points=[[0,0.5],[1,0.5]];portConstraint=eastwest;whiteSpace=wrap;html=1;rounded=0;" vertex="1" parent="ZSE54zDe3pXDpEOQKUg0-49">
          <mxGeometry y="26" width="233" height="26" as="geometry" />
        </mxCell>
        <mxCell id="ZSE54zDe3pXDpEOQKUg0-63" value="- to: Trapezoid" style="text;align=left;verticalAlign=top;spacingLeft=4;spacingRight=4;overflow=hidden;rotatable=0;points=[[0,0.5],[1,0.5]];portConstraint=eastwest;whiteSpace=wrap;html=1;rounded=0;" vertex="1" parent="ZSE54zDe3pXDpEOQKUg0-49">
          <mxGeometry y="52" width="233" height="26" as="geometry" />
        </mxCell>
        <mxCell id="ZSE54zDe3pXDpEOQKUg0-51" value="" style="line;strokeWidth=1;align=left;verticalAlign=middle;spacingTop=-1;spacingLeft=3;spacingRight=3;rotatable=0;labelPosition=right;points=[];portConstraint=eastwest;rounded=0;" vertex="1" parent="ZSE54zDe3pXDpEOQKUg0-49">
          <mxGeometry y="78" width="233" height="8" as="geometry" />
        </mxCell>
        <mxCell id="ZSE54zDe3pXDpEOQKUg0-52" value="+ __init__(p1: Point, p2: Point): None" style="text;align=left;verticalAlign=top;spacingLeft=4;spacingRight=4;overflow=hidden;rotatable=0;points=[[0,0.5],[1,0.5]];portConstraint=eastwest;whiteSpace=wrap;html=1;rounded=0;" vertex="1" parent="ZSE54zDe3pXDpEOQKUg0-49">
          <mxGeometry y="86" width="233" height="26" as="geometry" />
        </mxCell>
        <mxCell id="ZSE54zDe3pXDpEOQKUg0-103" value="+ set_from(Trapezoid): None" style="text;align=left;verticalAlign=top;spacingLeft=4;spacingRight=4;overflow=hidden;rotatable=0;points=[[0,0.5],[1,0.5]];portConstraint=eastwest;whiteSpace=wrap;html=1;rounded=0;" vertex="1" parent="ZSE54zDe3pXDpEOQKUg0-49">
          <mxGeometry y="112" width="233" height="26" as="geometry" />
        </mxCell>
        <mxCell id="ZSE54zDe3pXDpEOQKUg0-104" value="+ set_to(Trapezoid): None" style="text;align=left;verticalAlign=top;spacingLeft=4;spacingRight=4;overflow=hidden;rotatable=0;points=[[0,0.5],[1,0.5]];portConstraint=eastwest;whiteSpace=wrap;html=1;rounded=0;" vertex="1" parent="ZSE54zDe3pXDpEOQKUg0-49">
          <mxGeometry y="138" width="233" height="26" as="geometry" />
        </mxCell>
        <mxCell id="ZSE54zDe3pXDpEOQKUg0-106" value="+ get_from(): Trapezoid" style="text;align=left;verticalAlign=top;spacingLeft=4;spacingRight=4;overflow=hidden;rotatable=0;points=[[0,0.5],[1,0.5]];portConstraint=eastwest;whiteSpace=wrap;html=1;rounded=0;" vertex="1" parent="ZSE54zDe3pXDpEOQKUg0-49">
          <mxGeometry y="164" width="233" height="26" as="geometry" />
        </mxCell>
        <mxCell id="ZSE54zDe3pXDpEOQKUg0-105" value="+ get_to(): Trapezoid" style="text;align=left;verticalAlign=top;spacingLeft=4;spacingRight=4;overflow=hidden;rotatable=0;points=[[0,0.5],[1,0.5]];portConstraint=eastwest;whiteSpace=wrap;html=1;rounded=0;" vertex="1" parent="ZSE54zDe3pXDpEOQKUg0-49">
          <mxGeometry y="190" width="233" height="26" as="geometry" />
        </mxCell>
        <mxCell id="ZSE54zDe3pXDpEOQKUg0-97" value="+ find_closest_reachable_line(): list(Line)" style="text;align=left;verticalAlign=top;spacingLeft=4;spacingRight=4;overflow=hidden;rotatable=0;points=[[0,0.5],[1,0.5]];portConstraint=eastwest;whiteSpace=wrap;html=1;rounded=0;" vertex="1" parent="ZSE54zDe3pXDpEOQKUg0-49">
          <mxGeometry y="216" width="233" height="26" as="geometry" />
        </mxCell>
        <mxCell id="ZSE54zDe3pXDpEOQKUg0-88" value="- compute_center(): None" style="text;align=left;verticalAlign=top;spacingLeft=4;spacingRight=4;overflow=hidden;rotatable=0;points=[[0,0.5],[1,0.5]];portConstraint=eastwest;whiteSpace=wrap;html=1;rounded=0;" vertex="1" parent="ZSE54zDe3pXDpEOQKUg0-49">
          <mxGeometry y="242" width="233" height="26" as="geometry" />
        </mxCell>
        <mxCell id="ZSE54zDe3pXDpEOQKUg0-53" value="Figure" style="swimlane;fontStyle=1;align=center;verticalAlign=top;childLayout=stackLayout;horizontal=1;startSize=26;horizontalStack=0;resizeParent=1;resizeParentMax=0;resizeLast=0;collapsible=1;marginBottom=0;whiteSpace=wrap;html=1;rounded=0;swimlaneLine=1;shadow=0;glass=0;" vertex="1" parent="1">
          <mxGeometry x="580" y="680" width="280" height="294" as="geometry" />
        </mxCell>
        <mxCell id="ZSE54zDe3pXDpEOQKUg0-124" value="- points: list(Point)" style="text;align=left;verticalAlign=top;spacingLeft=4;spacingRight=4;overflow=hidden;rotatable=0;points=[[0,0.5],[1,0.5]];portConstraint=eastwest;whiteSpace=wrap;html=1;rounded=0;" vertex="1" parent="ZSE54zDe3pXDpEOQKUg0-53">
          <mxGeometry y="26" width="280" height="26" as="geometry" />
        </mxCell>
        <mxCell id="ZSE54zDe3pXDpEOQKUg0-54" value="- center: Point" style="text;align=left;verticalAlign=top;spacingLeft=4;spacingRight=4;overflow=hidden;rotatable=0;points=[[0,0.5],[1,0.5]];portConstraint=eastwest;whiteSpace=wrap;html=1;rounded=0;" vertex="1" parent="ZSE54zDe3pXDpEOQKUg0-53">
          <mxGeometry y="52" width="280" height="26" as="geometry" />
        </mxCell>
        <mxCell id="ZSE54zDe3pXDpEOQKUg0-57" value="- distance: float" style="text;align=left;verticalAlign=top;spacingLeft=4;spacingRight=4;overflow=hidden;rotatable=0;points=[[0,0.5],[1,0.5]];portConstraint=eastwest;whiteSpace=wrap;html=1;rounded=0;" vertex="1" parent="ZSE54zDe3pXDpEOQKUg0-53">
          <mxGeometry y="78" width="280" height="26" as="geometry" />
        </mxCell>
        <mxCell id="ZSE54zDe3pXDpEOQKUg0-58" value="- parent: Figure" style="text;align=left;verticalAlign=top;spacingLeft=4;spacingRight=4;overflow=hidden;rotatable=0;points=[[0,0.5],[1,0.5]];portConstraint=eastwest;whiteSpace=wrap;html=1;rounded=0;" vertex="1" parent="ZSE54zDe3pXDpEOQKUg0-53">
          <mxGeometry y="104" width="280" height="26" as="geometry" />
        </mxCell>
        <mxCell id="ZSE54zDe3pXDpEOQKUg0-55" value="" style="line;strokeWidth=1;align=left;verticalAlign=middle;spacingTop=-1;spacingLeft=3;spacingRight=3;rotatable=0;labelPosition=right;points=[];portConstraint=eastwest;rounded=0;" vertex="1" parent="ZSE54zDe3pXDpEOQKUg0-53">
          <mxGeometry y="130" width="280" height="8" as="geometry" />
        </mxCell>
        <mxCell id="ZSE54zDe3pXDpEOQKUg0-89" value="+ get_distance(): float" style="text;align=left;verticalAlign=top;spacingLeft=4;spacingRight=4;overflow=hidden;rotatable=0;points=[[0,0.5],[1,0.5]];portConstraint=eastwest;whiteSpace=wrap;html=1;rounded=0;" vertex="1" parent="ZSE54zDe3pXDpEOQKUg0-53">
          <mxGeometry y="138" width="280" height="26" as="geometry" />
        </mxCell>
        <mxCell id="ZSE54zDe3pXDpEOQKUg0-90" value="+ get_center(): Point" style="text;align=left;verticalAlign=top;spacingLeft=4;spacingRight=4;overflow=hidden;rotatable=0;points=[[0,0.5],[1,0.5]];portConstraint=eastwest;whiteSpace=wrap;html=1;rounded=0;" vertex="1" parent="ZSE54zDe3pXDpEOQKUg0-53">
          <mxGeometry y="164" width="280" height="26" as="geometry" />
        </mxCell>
        <mxCell id="ZSE54zDe3pXDpEOQKUg0-93" value="+ get_parent(): Figure" style="text;align=left;verticalAlign=top;spacingLeft=4;spacingRight=4;overflow=hidden;rotatable=0;points=[[0,0.5],[1,0.5]];portConstraint=eastwest;whiteSpace=wrap;html=1;rounded=0;" vertex="1" parent="ZSE54zDe3pXDpEOQKUg0-53">
          <mxGeometry y="190" width="280" height="26" as="geometry" />
        </mxCell>
        <mxCell id="ZSE54zDe3pXDpEOQKUg0-85" value="+ set_distance(distance_: float): None" style="text;align=left;verticalAlign=top;spacingLeft=4;spacingRight=4;overflow=hidden;rotatable=0;points=[[0,0.5],[1,0.5]];portConstraint=eastwest;whiteSpace=wrap;html=1;rounded=0;" vertex="1" parent="ZSE54zDe3pXDpEOQKUg0-53">
          <mxGeometry y="216" width="280" height="26" as="geometry" />
        </mxCell>
        <mxCell id="ZSE54zDe3pXDpEOQKUg0-86" value="+ set_parent(distance_: float): None" style="text;align=left;verticalAlign=top;spacingLeft=4;spacingRight=4;overflow=hidden;rotatable=0;points=[[0,0.5],[1,0.5]];portConstraint=eastwest;whiteSpace=wrap;html=1;rounded=0;" vertex="1" parent="ZSE54zDe3pXDpEOQKUg0-53">
          <mxGeometry y="242" width="280" height="26" as="geometry" />
        </mxCell>
        <mxCell id="ZSE54zDe3pXDpEOQKUg0-87" value="- {abstract} compute_center(): None" style="text;align=left;verticalAlign=top;spacingLeft=4;spacingRight=4;overflow=hidden;rotatable=0;points=[[0,0.5],[1,0.5]];portConstraint=eastwest;whiteSpace=wrap;html=1;rounded=0;" vertex="1" parent="ZSE54zDe3pXDpEOQKUg0-53">
          <mxGeometry y="268" width="280" height="26" as="geometry" />
        </mxCell>
        <mxCell id="ZSE54zDe3pXDpEOQKUg0-65" value="Point" style="swimlane;fontStyle=1;align=center;verticalAlign=top;childLayout=stackLayout;horizontal=1;startSize=26;horizontalStack=0;resizeParent=1;resizeParentMax=0;resizeLast=0;collapsible=1;marginBottom=0;whiteSpace=wrap;html=1;" vertex="1" parent="1">
          <mxGeometry x="1010" y="560" width="220" height="164" as="geometry" />
        </mxCell>
        <mxCell id="ZSE54zDe3pXDpEOQKUg0-66" value="- __x: float" style="text;align=left;verticalAlign=top;spacingLeft=4;spacingRight=4;overflow=hidden;rotatable=0;points=[[0,0.5],[1,0.5]];portConstraint=eastwest;whiteSpace=wrap;html=1;" vertex="1" parent="ZSE54zDe3pXDpEOQKUg0-65">
          <mxGeometry y="26" width="220" height="26" as="geometry" />
        </mxCell>
        <mxCell id="ZSE54zDe3pXDpEOQKUg0-69" value="- __y: float" style="text;align=left;verticalAlign=top;spacingLeft=4;spacingRight=4;overflow=hidden;rotatable=0;points=[[0,0.5],[1,0.5]];portConstraint=eastwest;whiteSpace=wrap;html=1;" vertex="1" parent="ZSE54zDe3pXDpEOQKUg0-65">
          <mxGeometry y="52" width="220" height="26" as="geometry" />
        </mxCell>
        <mxCell id="ZSE54zDe3pXDpEOQKUg0-67" value="" style="line;strokeWidth=1;align=left;verticalAlign=middle;spacingTop=-1;spacingLeft=3;spacingRight=3;rotatable=0;labelPosition=right;points=[];portConstraint=eastwest;" vertex="1" parent="ZSE54zDe3pXDpEOQKUg0-65">
          <mxGeometry y="78" width="220" height="8" as="geometry" />
        </mxCell>
        <mxCell id="ZSE54zDe3pXDpEOQKUg0-68" value="+ __init__(x: float, y: float): None" style="text;align=left;verticalAlign=top;spacingLeft=4;spacingRight=4;overflow=hidden;rotatable=0;points=[[0,0.5],[1,0.5]];portConstraint=eastwest;whiteSpace=wrap;html=1;" vertex="1" parent="ZSE54zDe3pXDpEOQKUg0-65">
          <mxGeometry y="86" width="220" height="26" as="geometry" />
        </mxCell>
        <mxCell id="ZSE54zDe3pXDpEOQKUg0-91" value="+ get_x(): float" style="text;align=left;verticalAlign=top;spacingLeft=4;spacingRight=4;overflow=hidden;rotatable=0;points=[[0,0.5],[1,0.5]];portConstraint=eastwest;whiteSpace=wrap;html=1;" vertex="1" parent="ZSE54zDe3pXDpEOQKUg0-65">
          <mxGeometry y="112" width="220" height="26" as="geometry" />
        </mxCell>
        <mxCell id="ZSE54zDe3pXDpEOQKUg0-92" value="+ get_y(): float" style="text;align=left;verticalAlign=top;spacingLeft=4;spacingRight=4;overflow=hidden;rotatable=0;points=[[0,0.5],[1,0.5]];portConstraint=eastwest;whiteSpace=wrap;html=1;" vertex="1" parent="ZSE54zDe3pXDpEOQKUg0-65">
          <mxGeometry y="138" width="220" height="26" as="geometry" />
        </mxCell>
        <mxCell id="ZSE54zDe3pXDpEOQKUg0-75" value="Graph" style="swimlane;fontStyle=1;align=center;verticalAlign=top;childLayout=stackLayout;horizontal=1;startSize=26;horizontalStack=0;resizeParent=1;resizeParentMax=0;resizeLast=0;collapsible=1;marginBottom=0;whiteSpace=wrap;html=1;" vertex="1" parent="1">
          <mxGeometry x="78.5" y="940" width="160" height="216" as="geometry" />
        </mxCell>
        <mxCell id="ZSE54zDe3pXDpEOQKUg0-76" value="- open: list(int)" style="text;align=left;verticalAlign=top;spacingLeft=4;spacingRight=4;overflow=hidden;rotatable=0;points=[[0,0.5],[1,0.5]];portConstraint=eastwest;whiteSpace=wrap;html=1;" vertex="1" parent="ZSE54zDe3pXDpEOQKUg0-75">
          <mxGeometry y="26" width="160" height="26" as="geometry" />
        </mxCell>
        <mxCell id="ZSE54zDe3pXDpEOQKUg0-79" value="- closed: list(int)" style="text;align=left;verticalAlign=top;spacingLeft=4;spacingRight=4;overflow=hidden;rotatable=0;points=[[0,0.5],[1,0.5]];portConstraint=eastwest;whiteSpace=wrap;html=1;" vertex="1" parent="ZSE54zDe3pXDpEOQKUg0-75">
          <mxGeometry y="52" width="160" height="26" as="geometry" />
        </mxCell>
        <mxCell id="ZSE54zDe3pXDpEOQKUg0-82" value="- shortest_path: list(Figure)" style="text;align=left;verticalAlign=top;spacingLeft=4;spacingRight=4;overflow=hidden;rotatable=0;points=[[0,0.5],[1,0.5]];portConstraint=eastwest;whiteSpace=wrap;html=1;" vertex="1" parent="ZSE54zDe3pXDpEOQKUg0-75">
          <mxGeometry y="78" width="160" height="26" as="geometry" />
        </mxCell>
        <mxCell id="ZSE54zDe3pXDpEOQKUg0-77" value="" style="line;strokeWidth=1;align=left;verticalAlign=middle;spacingTop=-1;spacingLeft=3;spacingRight=3;rotatable=0;labelPosition=right;points=[];portConstraint=eastwest;" vertex="1" parent="ZSE54zDe3pXDpEOQKUg0-75">
          <mxGeometry y="104" width="160" height="8" as="geometry" />
        </mxCell>
        <mxCell id="ZSE54zDe3pXDpEOQKUg0-78" value="+ __init__(Figure): None" style="text;align=left;verticalAlign=top;spacingLeft=4;spacingRight=4;overflow=hidden;rotatable=0;points=[[0,0.5],[1,0.5]];portConstraint=eastwest;whiteSpace=wrap;html=1;" vertex="1" parent="ZSE54zDe3pXDpEOQKUg0-75">
          <mxGeometry y="112" width="160" height="26" as="geometry" />
        </mxCell>
        <mxCell id="ZSE54zDe3pXDpEOQKUg0-80" value="+ dijkstra(): None" style="text;align=left;verticalAlign=top;spacingLeft=4;spacingRight=4;overflow=hidden;rotatable=0;points=[[0,0.5],[1,0.5]];portConstraint=eastwest;whiteSpace=wrap;html=1;" vertex="1" parent="ZSE54zDe3pXDpEOQKUg0-75">
          <mxGeometry y="138" width="160" height="26" as="geometry" />
        </mxCell>
        <mxCell id="ZSE54zDe3pXDpEOQKUg0-81" value="+ reconstruct_path(): None" style="text;align=left;verticalAlign=top;spacingLeft=4;spacingRight=4;overflow=hidden;rotatable=0;points=[[0,0.5],[1,0.5]];portConstraint=eastwest;whiteSpace=wrap;html=1;" vertex="1" parent="ZSE54zDe3pXDpEOQKUg0-75">
          <mxGeometry y="164" width="160" height="26" as="geometry" />
        </mxCell>
        <mxCell id="ZSE54zDe3pXDpEOQKUg0-119" value="+ get_path(): list(Figure)" style="text;align=left;verticalAlign=top;spacingLeft=4;spacingRight=4;overflow=hidden;rotatable=0;points=[[0,0.5],[1,0.5]];portConstraint=eastwest;whiteSpace=wrap;html=1;" vertex="1" parent="ZSE54zDe3pXDpEOQKUg0-75">
          <mxGeometry y="190" width="160" height="26" as="geometry" />
        </mxCell>
        <mxCell id="ZSE54zDe3pXDpEOQKUg0-95" value="" style="endArrow=block;dashed=1;endFill=0;endSize=12;html=1;rounded=0;exitX=0.5;exitY=0;exitDx=0;exitDy=0;" edge="1" parent="1" source="ZSE54zDe3pXDpEOQKUg0-45" target="ZSE54zDe3pXDpEOQKUg0-87">
          <mxGeometry width="160" relative="1" as="geometry">
            <mxPoint x="390" y="1060" as="sourcePoint" />
            <mxPoint x="550" y="1060" as="targetPoint" />
            <Array as="points">
              <mxPoint x="600" y="1070" />
              <mxPoint x="720" y="1070" />
            </Array>
          </mxGeometry>
        </mxCell>
        <mxCell id="ZSE54zDe3pXDpEOQKUg0-96" value="" style="endArrow=block;dashed=1;endFill=0;endSize=12;html=1;rounded=0;exitX=0.5;exitY=0;exitDx=0;exitDy=0;" edge="1" parent="1" source="ZSE54zDe3pXDpEOQKUg0-49" target="ZSE54zDe3pXDpEOQKUg0-87">
          <mxGeometry width="160" relative="1" as="geometry">
            <mxPoint x="800" y="1080" as="sourcePoint" />
            <mxPoint x="960" y="1080" as="targetPoint" />
            <Array as="points">
              <mxPoint x="874" y="1070" />
              <mxPoint x="720" y="1070" />
            </Array>
          </mxGeometry>
        </mxCell>
        <mxCell id="ZSE54zDe3pXDpEOQKUg0-120" value="Utils" style="swimlane;fontStyle=1;align=center;verticalAlign=top;childLayout=stackLayout;horizontal=1;startSize=26;horizontalStack=0;resizeParent=1;resizeParentMax=0;resizeLast=0;collapsible=1;marginBottom=0;whiteSpace=wrap;html=1;" vertex="1" parent="1">
          <mxGeometry x="1070" y="940" width="210" height="86" as="geometry" />
        </mxCell>
        <mxCell id="ZSE54zDe3pXDpEOQKUg0-121" value="+ field: type" style="text;align=left;verticalAlign=top;spacingLeft=4;spacingRight=4;overflow=hidden;rotatable=0;points=[[0,0.5],[1,0.5]];portConstraint=eastwest;whiteSpace=wrap;html=1;" vertex="1" parent="ZSE54zDe3pXDpEOQKUg0-120">
          <mxGeometry y="26" width="210" height="26" as="geometry" />
        </mxCell>
        <mxCell id="ZSE54zDe3pXDpEOQKUg0-122" value="" style="line;strokeWidth=1;align=left;verticalAlign=middle;spacingTop=-1;spacingLeft=3;spacingRight=3;rotatable=0;labelPosition=right;points=[];portConstraint=eastwest;" vertex="1" parent="ZSE54zDe3pXDpEOQKUg0-120">
          <mxGeometry y="52" width="210" height="8" as="geometry" />
        </mxCell>
        <mxCell id="ZSE54zDe3pXDpEOQKUg0-123" value="+ print_path(list(Figure)): None" style="text;align=left;verticalAlign=top;spacingLeft=4;spacingRight=4;overflow=hidden;rotatable=0;points=[[0,0.5],[1,0.5]];portConstraint=eastwest;whiteSpace=wrap;html=1;" vertex="1" parent="ZSE54zDe3pXDpEOQKUg0-120">
          <mxGeometry y="60" width="210" height="26" as="geometry" />
        </mxCell>
      </root>
    </mxGraphModel>
  </diagram>
</mxfile>
